<svg xmlns="http://www.w3.org/2000/svg" viewBox="0 0 1200 900" role="img" aria-labelledby="title desc">
  <title id="title">Interactive world model cover</title>
  <desc id="desc">A minimal grid of frames connected to action inputs.</desc>
  <rect width="1200" height="900" fill="#f7f7f4"/>
  <rect x="120" y="120" width="960" height="660" rx="28" fill="#ffffff" stroke="#d8d8d2" stroke-width="4"/>
  <g fill="#f1f1ec" stroke="#c8c8bf" stroke-width="4">
    <rect x="190" y="190" width="240" height="160" rx="18"/>
    <rect x="480" y="190" width="240" height="160" rx="18"/>
    <rect x="770" y="190" width="240" height="160" rx="18"/>
    <rect x="190" y="430" width="240" height="160" rx="18"/>
    <rect x="480" y="430" width="240" height="160" rx="18"/>
    <rect x="770" y="430" width="240" height="160" rx="18"/>
  </g>
  <g fill="none" stroke="#57645f" stroke-width="7" stroke-linecap="round">
    <path d="M430 270h50M720 270h50M430 510h50M720 510h50"/>
    <path d="M600 350v80"/>
  </g>
  <g fill="#2f6f63">
    <circle cx="310" cy="270" r="24"/>
    <circle cx="600" cy="270" r="24"/>
    <circle cx="890" cy="270" r="24"/>
    <circle cx="310" cy="510" r="24"/>
    <circle cx="600" cy="510" r="24"/>
    <circle cx="890" cy="510" r="24"/>
  </g>
  <rect x="365" y="660" width="470" height="62" rx="31" fill="#202624"/>
  <text x="430" y="704" fill="#ffffff" font-family="Arial, sans-serif" font-size="38" font-weight="700">action-conditioned world</text>
</svg>
