<svg xmlns="http://www.w3.org/2000/svg" viewBox="0 0 1200 900" role="img" aria-labelledby="title desc">
  <title id="title">Situated interaction cover</title>
  <desc id="desc">Human and agent nodes exchanging messages in an interface.</desc>
  <rect width="1200" height="900" fill="#f7f7f4"/>
  <rect x="150" y="120" width="900" height="660" rx="26" fill="#ffffff" stroke="#d8d8d2" stroke-width="5"/>
  <g fill="none" stroke="#c8c8bf" stroke-width="6">
    <path d="M360 310h480M360 450h480M360 590h480"/>
    <path d="M460 310c55 95 225 95 280 0"/>
    <path d="M460 450c55 95 225 95 280 0"/>
    <path d="M460 590c55-95 225-95 280 0"/>
  </g>
  <g>
    <circle cx="360" cy="310" r="48" fill="#2f6f63"/>
    <circle cx="840" cy="310" r="48" fill="#202624"/>
    <circle cx="360" cy="450" r="48" fill="#202624"/>
    <circle cx="840" cy="450" r="48" fill="#2f6f63"/>
    <circle cx="360" cy="590" r="48" fill="#2f6f63"/>
    <circle cx="840" cy="590" r="48" fill="#202624"/>
  </g>
  <g fill="#ffffff" font-family="Arial, sans-serif" font-size="36" font-weight="700" text-anchor="middle">
    <text x="360" y="323">H</text>
    <text x="840" y="323">A</text>
    <text x="360" y="463">A</text>
    <text x="840" y="463">H</text>
    <text x="360" y="603">H</text>
    <text x="840" y="603">A</text>
  </g>
  <text x="340" y="720" fill="#202624" font-family="Arial, sans-serif" font-size="48" font-weight="700">interactive simulacra</text>
</svg>
