<svg xmlns="http://www.w3.org/2000/svg" viewBox="0 0 1200 900" role="img" aria-labelledby="title desc">
  <title id="title">Transformer paper cover</title>
  <desc id="desc">Layered attention blocks connected by thin lines.</desc>
  <rect width="1200" height="900" fill="#17201d"/>
  <rect x="90" y="80" width="1020" height="740" rx="28" fill="#22302b"/>
  <g fill="none" stroke="#7cc1a7" stroke-width="8" opacity=".9">
    <path d="M280 240h640M280 450h640M280 660h640"/>
    <path d="M300 240c120 180 480 180 600 0M300 450c120 180 480 180 600 0M300 660c120-180 480-180 600 0"/>
  </g>
  <g fill="#f2c45f">
    <circle cx="280" cy="240" r="28"/>
    <circle cx="600" cy="240" r="28"/>
    <circle cx="920" cy="240" r="28"/>
    <circle cx="280" cy="450" r="28"/>
    <circle cx="600" cy="450" r="28"/>
    <circle cx="920" cy="450" r="28"/>
    <circle cx="280" cy="660" r="28"/>
    <circle cx="600" cy="660" r="28"/>
    <circle cx="920" cy="660" r="28"/>
  </g>
  <text x="120" y="740" fill="#f1f3ef" font-family="Arial, sans-serif" font-size="72" font-weight="700">Attention</text>
</svg>
