<svg xmlns="http://www.w3.org/2000/svg" viewBox="0 0 1200 900" role="img" aria-labelledby="title desc">
  <title id="title">XR interaction cover</title>
  <desc id="desc">Headset view with tracked hands controlling a generated scene.</desc>
  <rect width="1200" height="900" fill="#f7f7f4"/>
  <rect x="210" y="160" width="780" height="390" rx="56" fill="#ffffff" stroke="#d8d8d2" stroke-width="5"/>
  <rect x="285" y="230" width="630" height="250" rx="32" fill="#e9f0ed"/>
  <path d="M300 455c95-140 170-150 250-55s150 72 250-45 115-58 130 100z" fill="#9ab7ad"/>
  <g fill="none" stroke="#2f6f63" stroke-width="9" stroke-linecap="round">
    <path d="M420 650c-70-74-108-129-98-169 8-34 43-30 70 14"/>
    <path d="M430 650c-18-110 3-204 44-204 35 0 38 55 40 104"/>
    <path d="M780 650c70-74 108-129 98-169-8-34-43-30-70 14"/>
    <path d="M770 650c18-110-3-204-44-204-35 0-38 55-40 104"/>
  </g>
  <circle cx="600" cy="355" r="42" fill="#202624"/>
  <text x="385" y="735" fill="#202624" font-family="Arial, sans-serif" font-size="48" font-weight="700">human-in-the-loop world</text>
</svg>
